<svg width="126px" height="29px" viewBox="0 0 126 29" version="1.1" xmlns="http://www.w3.org/2000/svg" xmlns:xlink="http://www.w3.org/1999/xlink">
    <g id="04-–-TinyMerch.com" stroke="none" stroke-width="1" fill="none" fill-rule="evenodd">
        <g id="TinyMerch-–-Home" transform="translate(-100.000000, -4683.000000)" fill="#6079F2">
            <g id="Group" transform="translate(100.000000, 4683.000000)">
                <g id="Page-1" transform="translate(33.000000, 9.000000)">
                    <path d="M40.815375,14.0080514 L37.045,14.0080514 L37.045,4.57614892 L40.3786071,4.57614892 C40.5203214,5.10482229 40.6598214,5.62697554 40.7993214,6.14967214 C40.8275536,6.1529322 40.8563393,6.1567356 40.8845714,6.16053901 C41.4342679,4.91899876 42.4190714,4.34414118 43.7559464,4.3381644 C45.1000179,4.33164427 46.1003214,4.87281455 46.6217857,6.20454985 C46.7042679,6.0882743 46.77125,6.01763963 46.8105536,5.93450805 C47.40675,4.68481765 48.9628393,4.14310402 50.3428929,4.38163189 C51.5557679,4.5908192 52.2903571,5.28358235 52.5660357,6.44959783 C52.6158571,6.66258854 52.6313571,6.88807616 52.6319107,7.10704365 C52.6363393,9.35594303 52.6363393,11.6048424 52.6357857,13.8531985 C52.6357857,13.9059028 52.6241607,13.9586071 52.6169643,14.0151149 L48.8587679,14.0151149 C48.8504643,13.8684121 48.836625,13.740183 48.836625,13.6124972 C48.8305357,11.8732542 48.8305357,10.1345545 48.8194643,8.39531146 C48.8166964,7.88022167 48.557625,7.54443529 48.1369107,7.45913034 C47.627625,7.35589505 47.1797857,7.55258545 46.9777321,8.02909783 C46.8636964,8.29696625 46.78675,8.6012387 46.7834286,8.88975418 C46.7651607,10.4518672 46.7745714,12.0134368 46.7745714,13.5755498 L46.7745714,14.0031613 L42.9803929,14.0031613 C42.9748571,13.9428502 42.9610179,13.8602619 42.9610179,13.7771303 C42.9599107,12.1378625 42.9604643,10.4980514 42.9604643,8.85824025 C42.9604643,8.75880836 42.9626786,8.65883313 42.9593571,8.55940124 C42.938875,7.85088111 42.6471429,7.47597399 42.0764107,7.42218297 C41.5377857,7.37219536 41.0185357,7.80143684 40.9155714,8.41595851 C40.8568929,8.76369845 40.8220179,9.1190452 40.8198036,9.47113189 C40.8092857,10.9767372 40.815375,12.4828858 40.815375,14.0080514" id="Fill-21"></path>
                    <path d="M86.7017964,14.0149519 L82.9352964,14.0149519 L82.9352964,0.593820279 C84.1686536,0.555786223 85.4175107,0.586756811 86.7211714,0.575346594 L86.7211714,6.03377693 C86.7471893,6.03921037 86.7732071,6.04464381 86.7997786,6.05007724 C86.8512607,5.98378932 86.9138143,5.92347817 86.9520107,5.85067012 C87.6030107,4.60967322 89.0721893,4.15924133 90.3941179,4.37875217 C91.4896357,4.56077229 92.2485821,5.13780325 92.5895821,6.19134659 C92.6770464,6.46247508 92.7584214,6.74990387 92.7600821,7.03081254 C92.774475,9.27862523 92.7683857,11.5269813 92.7678321,13.7753373 C92.7678321,13.8405385 92.7567607,13.9062831 92.7490107,14.0029983 L88.9686714,14.0029983 L88.9686714,13.6574317 C88.9686714,12.0181639 88.9697786,10.3794395 88.9664571,8.74017167 C88.9659036,8.57553854 88.9553857,8.40655867 88.9182964,8.24681563 C88.7848857,7.68119489 88.5335643,7.4497305 88.0270464,7.40354628 C87.6262607,7.36605557 87.0953857,7.65076765 86.9569929,8.0745757 C86.8180464,8.49892709 86.7222786,8.95479241 86.7134214,9.39924752 C86.6835286,10.8271546 86.7017964,12.2561485 86.7017964,13.6851423 L86.7017964,14.0149519 Z" id="Fill-23"></path>
                    <path d="M32.4150393,4.56615139 L36.0442536,4.56615139 C35.8970036,5.00625975 35.7630393,5.42300433 35.6180036,5.83540217 C34.6177,8.68523963 33.6395393,11.5426839 32.5971643,14.3773077 C32.3342179,15.093978 31.9195929,15.7747876 31.4783964,16.4066963 C30.8058071,17.3695012 29.7767179,17.8014594 28.6247357,17.9068681 C27.5818071,18.0024966 26.5532714,17.9063248 25.5573964,17.3178836 C25.786575,16.4713542 26.0207357,15.6063511 26.2698429,14.6864703 C26.8106821,15.0331235 27.3531821,15.3085988 27.9233607,15.0526839 C28.2300393,14.9146746 28.4403964,14.5701947 28.6767714,14.336557 C27.5126107,11.0335709 26.3805571,7.82240991 25.2368786,4.57810495 L29.1976821,4.57810495 C29.6997714,6.41895325 30.2024143,8.26523498 30.7056107,10.1120601 C30.7476821,10.1120601 30.7897536,10.1126034 30.8329321,10.1126034 C31.3604857,8.26360495 31.8880393,6.4146065 32.4150393,4.56615139" id="Fill-25"></path>
                    <path d="M18.4757232,14.0104421 L14.7047946,14.0104421 L14.7047946,4.57853963 L18.0411696,4.57853963 C18.1801161,5.09906285 18.3196161,5.62230279 18.4663125,6.17433994 C18.5499018,6.1178322 18.5903125,6.10587864 18.5997232,6.08197152 C19.1405625,4.7051387 20.7680625,4.12213096 22.2283839,4.39488947 C23.3056339,4.59538328 24.0236161,5.1718709 24.3601875,6.19064025 C24.4526339,6.47154892 24.5312411,6.77147461 24.5329018,7.06270681 C24.5472946,9.30073932 24.5412054,11.5382285 24.5400982,13.776261 C24.5400982,13.8409189 24.5273661,13.9061201 24.5168482,14.002292 L20.7509018,14.002292 C20.7470268,13.9164437 20.7370625,13.8208152 20.7370625,13.7251867 C20.7359554,12.0745087 20.7381696,10.4238307 20.7342946,8.77315263 C20.7337411,8.58678576 20.7232232,8.39498545 20.6789375,8.21405201 C20.5494018,7.67396842 20.3368304,7.45282755 19.8297589,7.41642353 C19.4035089,7.38653963 18.9805804,7.53650248 18.8178304,7.93803344 C18.6390268,8.37868514 18.5045089,8.86552105 18.4906696,9.3366 C18.4497054,10.7862409 18.4757232,12.2385985 18.4757232,13.6898693 L18.4757232,14.0104421 Z" id="Fill-27"></path>
                    <path d="M59.7589768,8.3223404 C59.9261554,7.83496115 59.8143339,7.41930325 59.4556196,7.14382802 C59.0764232,6.85150913 58.6889232,6.84009892 58.2399768,7.10688065 C57.7821732,7.37855248 57.5098161,7.88386207 57.6017089,8.3223404 L59.7589768,8.3223404 Z M63.1424054,9.9230308 L57.5873161,9.9230308 C57.4112804,10.4788714 57.7949054,11.199345 58.3911018,11.4145091 C59.0116554,11.6389101 59.7362804,11.5845757 60.2140125,10.509842 C61.2104411,10.8559519 62.2107446,11.2031485 63.2359589,11.5595819 C62.9929411,12.3680772 62.5096732,12.9766221 61.8271196,13.4183605 C60.6352804,14.1899085 59.3166732,14.375732 57.9172446,14.1844751 C56.9817089,14.056246 56.1303161,13.7655571 55.4034768,13.1542955 C54.4679411,12.3680772 54.0184411,11.3422444 53.8889054,10.1735122 C53.7676732,9.08302152 53.8490482,8.00285433 54.3140482,6.98788839 C54.9916196,5.510537 56.1729411,4.67813452 57.7976732,4.422763 C58.8156911,4.26247663 59.8165482,4.28801378 60.7897268,4.64010046 C62.0252982,5.08727229 62.7781554,5.97944257 63.1329946,7.2008791 C63.3643875,7.99687755 63.3306196,8.81460975 63.2387268,9.62962523 C63.2293161,9.71493019 63.1850304,9.79643173 63.1424054,9.9230308 L63.1424054,9.9230308 Z" id="Fill-29"></path>
                    <path d="M1.35016071,7.28314133 L0.221428571,7.28314133 L0.221428571,4.5544695 L1.38448214,4.5544695 L1.38448214,2.54409799 C2.67430357,2.40717539 3.91651786,2.27514288 5.20910714,2.13822028 L5.20910714,4.54686269 L7.52801786,4.54686269 L7.52801786,7.25706084 L5.26003571,7.25706084 C5.22848214,7.37713978 5.19194643,7.44940449 5.1925,7.52112585 C5.19360714,8.48501749 5.18807143,9.44890913 5.21076786,10.4117141 C5.22405357,10.9762481 5.58941071,11.3006243 6.15958929,11.2332497 C6.51996429,11.1903255 6.86816071,11.0479695 7.22023214,10.9441909 C7.31101786,10.9170237 7.39516071,10.8670361 7.52358929,10.8088983 C7.67083929,11.6880283 7.80978571,12.5209741 7.95094643,13.3647868 C7.48317857,13.7353472 6.98108929,13.953228 6.42807143,14.0885206 C5.33532143,14.3558457 4.26194643,14.3178116 3.20794643,13.9287776 C2.18826786,13.5522404 1.44039286,12.5209741 1.41326786,11.4467837 C1.38282143,10.2085036 1.37008929,8.96968003 1.35071429,7.73031316 C1.3485,7.59936734 1.35016071,7.46787817 1.35016071,7.28314133" id="Fill-31"></path>
                    <path d="M81.6688357,7.68798669 C80.6004429,7.92651455 79.5519786,8.16123901 78.4691929,8.40357028 C78.4298893,8.230787 78.3922464,8.06180712 78.3546036,7.89282724 C78.2505321,7.42718173 77.9383179,7.10552229 77.5214786,7.0359743 C77.172175,6.97729319 76.7492464,7.20060743 76.5339071,7.60213839 C76.4148893,7.82273591 76.3301929,8.06941393 76.27705,8.31446192 C76.1037821,9.10502693 76.1187286,9.89885201 76.3639607,10.6731167 C76.5372286,11.2202638 77.0138536,11.5680037 77.4733179,11.5408365 C77.9017821,11.5158427 78.3285857,11.0789944 78.4619964,10.5253272 C78.4797107,10.4514325 78.4858,10.3748211 78.5096036,10.216708 C79.6206214,10.5720548 80.7056214,10.918708 81.7856393,11.2642746 C81.4518357,12.9100625 80.1127464,13.8375502 78.6773357,14.1331291 C77.4998893,14.374917 76.3346214,14.2983056 75.2247107,13.864174 C73.8108893,13.3110502 72.9218536,12.2716337 72.5775321,10.8100393 C72.2154964,9.27020341 72.3029607,7.76894489 73.1504786,6.38722198 C73.8479786,5.24946037 74.9152643,4.63113529 76.2466036,4.42140464 C77.3244071,4.25133808 78.3839429,4.29589226 79.4047286,4.67677616 C80.675175,5.15002848 81.4324607,6.06338916 81.6660679,7.38425759 C81.6738179,7.42772508 81.6771393,7.47227926 81.6776929,7.51683344 C81.6782464,7.55975759 81.6738179,7.60322508 81.6688357,7.68798669" id="Fill-33"></path>
                    <path d="M71.8418911,4.42689241 C71.7726946,5.69451316 71.7057125,6.91540635 71.6420518,8.09120201 C71.0890339,8.03958437 70.5587125,7.95047601 70.0283911,7.94938932 C69.2273732,7.94721594 68.5033018,8.58836146 68.4673196,9.37077632 C68.4019982,10.79488 68.3981232,12.2222438 68.3693375,13.6479776 C68.3665696,13.7664265 68.3687839,13.8848754 68.3687839,14.0120178 L64.6039446,14.0120178 L64.6039446,4.58120201 L67.9541589,4.58120201 C68.0742839,5.16312307 68.1938554,5.74069737 68.3134268,6.31881502 C68.3411054,6.34272214 68.3687839,6.3671726 68.3964625,6.39107972 C68.9849089,4.7664822 70.1269268,4.13131347 71.8418911,4.42689241" id="Fill-35"></path>
                    <path d="M9.11853929,4.55474118 C10.3308607,4.55474118 11.5143964,4.55474118 12.6979321,4.55474118 C12.7516286,4.55474118 12.8058786,4.56071796 12.8706464,4.56452136 L12.8706464,14.0176142 L9.11853929,14.0176142 L9.11853929,4.55474118 Z" id="Fill-37"></path>
                    <path d="M13.1178714,1.97891192 C13.234675,3.04169211 12.2847464,3.76922926 11.3829786,3.83117043 C10.7242286,3.87572461 10.1081036,3.83171378 9.56947857,3.41551254 C8.88858571,2.88901254 8.79613929,2.18538251 8.96774643,1.41600789 C9.09672857,0.835716873 9.76765714,0.240755573 10.4181036,0.1913113 C10.8903,0.155993963 11.3912821,0.148387152 11.8413357,0.266836068 C12.723175,0.498300464 13.1173179,1.08891502 13.1178714,1.97891192" id="Fill-39"></path>
                </g>
                <g id="Page-1">
                    <path d="M29.7069707,12.4988456 C29.462748,12.2051098 29.1047778,12.0377358 28.7217161,12.0377358 C28.7133523,12.0377358 28.7044309,12.0377358 28.6960671,12.0382901 L27.5965074,12.0604588 C27.3394602,12.066001 27.1197713,12.246122 27.0668006,12.4960745 L24.3608353,25.1760386 C24.122746,26.2894635 23.1441824,27.0614898 22.0251071,27.0614898 C21.9358933,27.0614898 21.8455644,27.0565019 21.7552354,27.0465259 L7.54849928,25.4769793 C7.34888346,25.4553647 7.18662591,25.6338231 7.22900245,25.8283538 L7.255209,25.9508361 C7.39126,26.5793198 7.91539093,27.0509597 8.55773012,27.1218997 L25.5027716,28.9929412 C26.1557049,29.0605558 26.7567827,28.6360245 26.8939489,27.9942395 L29.9718241,13.5718125 C30.0532317,13.1905102 29.9562117,12.799232 29.7069707,12.4988456" id="Fill-1"></path>
                    <path d="M19.3829115,8.97053156 L19.3829115,6.25480776 C19.3829115,6.03361501 19.3708467,5.81583398 19.3472915,5.60089604 C20.460703,6.33839473 21.2317031,7.54329815 21.3707359,8.93015962 L19.3829115,8.97053156 Z M19.0956536,15.0809101 C19.0956536,15.5892554 18.6785552,16.0020727 18.1649382,16.0020727 L17.8903196,16.0020727 C17.3767026,16.0020727 16.9601787,15.5892554 16.9601787,15.0809101 L16.9601787,14.5447025 C16.9601787,14.0363572 17.3767026,13.6241085 17.8903196,13.6241085 L18.1649382,13.6241085 C18.6785552,13.6241085 19.0956536,14.0363572 19.0956536,14.5447025 L19.0956536,15.0809101 Z M16.223075,18.215706 C16.223075,19.7879373 14.9355852,21.0622122 13.3476237,21.0622122 C11.7590877,21.0622122 10.471598,19.7879373 10.471598,18.215706 L10.471598,18.1451973 C10.471598,17.859182 10.7060004,17.6271855 10.9949818,17.6271855 L15.7002657,17.6271855 C15.9892471,17.6271855 16.223075,17.859182 16.223075,18.1451973 L16.223075,18.215706 Z M9.63050696,15.522727 C9.63050696,16.0794049 9.17491599,16.5303197 8.6130396,16.5303197 L8.51249935,16.5303197 C7.95062297,16.5303197 7.49503199,16.0794049 7.49503199,15.522727 L7.49503199,15.1593795 C7.49503199,14.6032703 7.95062297,14.1523555 8.51249935,14.1523555 L8.6130396,14.1523555 C9.17491599,14.1523555 9.63050696,14.6032703 9.63050696,15.1593795 L9.63050696,15.522727 Z M8.46711261,6.25480776 C8.46711261,3.74662985 10.5290496,1.70585666 13.0632385,1.70585666 C14.3829011,1.70585666 15.5709996,2.26253455 16.4097926,3.14673692 C13.1838868,3.34234182 10.6094818,5.93751842 10.4899825,9.15021513 L8.46711261,9.19115569 L8.46711261,6.25480776 Z M17.4450699,4.88386762 C17.5835282,5.31658659 17.6593643,5.77716789 17.6593643,6.25480776 L17.6593643,9.00521731 L12.2146787,9.11496076 C12.3560096,6.73131038 14.3541753,4.83326054 16.7975907,4.83326054 C17.0182048,4.83326054 17.2330736,4.85429944 17.4450699,4.88386762 L17.4450699,4.88386762 Z M22.9110126,25.2324631 L26.0817649,10.4347252 C26.1662187,10.0435154 26.066253,9.64263908 25.8094445,9.33444765 C25.5572321,9.03251102 25.188393,8.86135673 24.7942752,8.86135673 C24.7850829,8.86135673 24.7764652,8.86135673 24.7672729,8.86192535 L23.0925596,8.89547387 C22.8897555,6.31223826 21.100139,4.16285887 18.6860239,3.41341918 C17.6381072,1.39027318 15.5141226,0 13.0632385,0 C9.57880055,0 6.74356541,2.80613421 6.74356541,6.25480776 L6.74356541,9.22584144 L1.29026209,9.3361535 C0.895569786,9.34354555 0.529603265,9.52379774 0.284859563,9.8297147 C0.0401158618,10.1356317 -0.0529556867,10.5302532 0.0292000629,10.9117964 L2.67599404,23.1359653 C2.81560136,23.7813477 3.35564615,24.2641051 4.01806278,24.3368884 L21.4775959,26.2571143 C22.1492047,26.3253486 22.7696817,25.8909238 22.9110126,25.2324631 L22.9110126,25.2324631 Z" id="Fill-3"></path>
                </g>
            </g>
        </g>
    </g>
</svg>
